<?xml version="1.0" standalone="no"?>
<!DOCTYPE svg PUBLIC "-//W3C//DTD SVG 20010904//EN"
 "http://www.w3.org/TR/2001/REC-SVG-20010904/DTD/svg10.dtd">
<svg version="1.0" xmlns="http://www.w3.org/2000/svg"
 width="300.000000pt" height="300.000000pt" viewBox="0 0 300.000000 300.000000"
 preserveAspectRatio="xMidYMid meet">
<metadata>
Created by potrace 1.10, written by Peter Selinger 2001-2011
</metadata>
<g transform="translate(0.000000,300.000000) scale(0.100000,-0.100000)"
fill="#000000" stroke="none">
<path d="M1455 2598 c-54 -115 -333 -679 -338 -684 -4 -5 -820 -124 -845 -124
-8 0 -12 -4 -10 -8 2 -5 142 -143 311 -307 273 -265 307 -302 303 -324 -3 -14
-21 -118 -41 -231 -19 -113 -50 -293 -69 -400 -19 -107 -33 -196 -31 -198 1
-2 160 80 352 182 193 102 366 192 385 202 l35 16 381 -201 c209 -110 383
-201 387 -201 4 0 5 7 1 15 -3 8 -37 200 -77 427 l-71 411 158 156 c88 86 228
223 312 305 84 82 151 150 150 151 -2 1 -194 30 -428 63 -296 43 -428 66 -435
75 -5 8 -91 181 -190 385 -99 204 -185 371 -191 372 -6 0 -28 -37 -49 -82z
m426 -699 c15 -10 82 -25 169 -38 80 -12 172 -26 205 -31 33 -5 96 -14 140
-20 44 -7 129 -19 190 -28 l109 -17 -169 -167 c-94 -92 -223 -218 -287 -280
-64 -62 -121 -122 -126 -133 -10 -21 -10 -22 33 -270 14 -82 35 -199 45 -260
10 -60 24 -135 30 -165 6 -30 13 -69 15 -87 6 -38 3 -37 -90 12 -94 50 -261
138 -370 195 -55 29 -138 73 -184 98 l-84 45 -61 -31 c-74 -38 -286 -149 -416
-219 -223 -119 -250 -133 -255 -133 -4 0 -4 15 -1 32 3 18 13 76 21 128 8 52
19 118 25 145 6 28 15 77 20 110 6 33 23 133 38 222 26 150 27 165 13 186 -9
13 -90 96 -181 184 -91 88 -216 211 -279 272 -63 61 -113 113 -110 115 2 2 87
16 189 30 102 14 212 30 245 36 33 5 125 19 205 31 80 12 155 28 167 35 12 7
44 60 71 116 28 57 107 220 177 363 l128 260 177 -360 c114 -230 186 -366 201
-376z"/>
</g>
</svg>
