<?xml version="1.0" standalone="no"?>
<!DOCTYPE svg PUBLIC "-//W3C//DTD SVG 20010904//EN"
 "http://www.w3.org/TR/2001/REC-SVG-20010904/DTD/svg10.dtd">
<svg version="1.0" xmlns="http://www.w3.org/2000/svg"
 width="300.000000pt" height="300.000000pt" viewBox="0 0 300.000000 300.000000"
 preserveAspectRatio="xMidYMid meet">
<metadata>
Created by potrace 1.10, written by Peter Selinger 2001-2011
</metadata>
<g transform="translate(0.000000,300.000000) scale(0.100000,-0.100000)"
fill="#000000" stroke="none">
<path d="M1557 2493 c-2 -4 -24 -68 -47 -141 -23 -74 -48 -135 -54 -138 -6 -2
-69 -7 -141 -11 -117 -7 -130 -10 -133 -27 -3 -11 4 -26 14 -33 79 -56 193
-161 194 -178 0 -11 -14 -80 -32 -152 -21 -86 -29 -136 -22 -143 6 -6 49 20
123 75 63 47 117 85 120 85 7 0 96 -60 173 -118 61 -45 83 -52 76 -24 -34 129
-71 292 -68 294 3 2 43 37 90 79 47 41 98 83 114 93 26 16 27 19 13 33 -12 12
-46 17 -141 21 -77 3 -129 9 -135 16 -6 7 -30 70 -54 141 -36 106 -48 131 -65
133 -11 2 -22 0 -25 -5z m34 -15 c1 -29 9 -56 23 -83 8 -15 27 -68 43 -116
l28 -89 66 0 c36 0 100 -3 143 -6 66 -6 73 -9 54 -18 -15 -7 -41 -9 -73 -5
-27 4 -78 8 -113 8 -35 1 -72 5 -82 11 -11 6 -30 46 -49 102 -17 51 -36 100
-41 108 -14 21 -22 7 -62 -108 -37 -110 -40 -112 -161 -112 -90 0 -118 -9 -99
-33 7 -7 8 -18 4 -22 -4 -5 -1 -5 7 0 9 5 12 4 7 -3 -4 -7 -2 -10 6 -7 8 3 27
-8 42 -24 28 -29 28 -30 7 -28 -13 1 -38 18 -56 38 -18 21 -35 35 -37 33 -3
-2 -17 9 -32 25 l-27 28 92 6 c51 4 115 7 143 7 l52 0 49 150 c45 135 64 174
66 138z m29 -208 c16 -46 35 -89 42 -96 8 -9 54 -16 126 -20 62 -4 115 -10
117 -14 6 -9 -41 -53 -60 -56 -18 -3 -115 -86 -115 -99 0 -18 33 -150 39 -155
7 -5 31 -93 31 -110 0 -6 -4 -10 -8 -10 -13 0 -57 41 -55 51 2 4 -3 6 -11 3
-7 -3 -19 3 -27 12 -12 15 -12 17 0 9 9 -5 12 -4 7 3 -4 6 -12 9 -19 6 -7 -2
-30 12 -52 32 -40 38 -71 49 -82 31 -4 -6 -1 -7 7 -2 9 6 11 4 6 -4 -5 -7 -14
-10 -22 -7 -7 3 -16 0 -20 -6 -5 -7 -2 -8 7 -4 8 4 1 -4 -16 -18 -16 -14 -35
-24 -42 -21 -7 2 -15 -1 -19 -7 -5 -7 -2 -8 7 -3 12 8 12 6 0 -8 -15 -19 -36
-23 -25 -5 4 7 3 8 -5 4 -6 -4 -9 -11 -6 -16 6 -9 -46 -50 -64 -50 -6 0 -11
-5 -11 -11 0 -5 6 -7 13 -3 9 5 9 4 0 -6 -23 -24 -26 -1 -8 47 10 27 19 55 20
63 0 9 4 20 8 26 3 6 9 26 11 45 7 50 15 81 21 87 3 3 -11 22 -31 43 -43 44
-31 60 17 20 l34 -29 -23 -92 c-12 -51 -21 -95 -18 -97 2 -2 14 39 27 92 l23
97 -39 36 c-126 113 -127 114 -114 123 8 5 53 9 100 9 53 0 91 5 101 13 9 6
31 54 49 105 19 57 35 90 41 84 5 -5 22 -47 38 -92z"/>
<path d="M1058 1863 c-9 -10 -43 -70 -77 -133 -110 -207 -135 -245 -161 -248
-14 -1 -95 9 -180 24 -85 15 -173 27 -195 28 -64 2 -58 -25 31 -134 126 -156
194 -248 194 -264 0 -8 -40 -104 -90 -213 -49 -109 -90 -204 -90 -211 0 -27
30 -21 131 27 211 99 281 131 289 131 6 0 229 -232 307 -320 29 -32 31 8 13
240 -10 129 -15 238 -11 242 16 16 330 192 358 200 65 18 41 61 -49 85 -29 8
-87 24 -128 35 -41 11 -92 23 -112 25 -21 3 -38 9 -38 14 0 5 -8 9 -19 9 -10
0 -24 6 -30 14 -12 14 -71 348 -71 402 0 30 -25 64 -47 64 -5 0 -17 -8 -25
-17z m46 -19 c3 -9 6 -25 6 -37 0 -20 0 -20 -14 -1 -15 19 -15 19 -33 0 -17
-19 -17 -19 0 -6 23 17 36 1 38 -50 2 -34 2 -34 7 -5 3 19 15 -34 34 -145 15
-96 35 -185 43 -197 9 -13 11 -23 6 -23 -13 0 -23 17 -32 54 l-7 31 -1 -31
c-1 -16 5 -37 12 -46 16 -20 131 -51 160 -43 18 5 19 4 7 -5 -12 -9 -7 -10 20
-5 23 4 30 3 22 -3 -18 -12 30 -25 61 -17 15 4 18 3 9 -3 -9 -6 6 -14 48 -25
33 -10 60 -22 60 -27 0 -6 -3 -10 -7 -10 -26 2 -385 108 -394 117 -5 5 -22 87
-38 182 -18 111 -33 176 -42 181 -13 9 -37 -21 -87 -112 -87 -160 -114 -198
-135 -193 -38 8 -281 44 -319 47 l-36 4 21 -31 c11 -16 62 -84 112 -150 50
-66 95 -125 98 -132 11 -18 -94 -247 -105 -231 -6 9 -7 5 -3 -9 3 -13 -2 -37
-13 -60 -27 -54 -35 -83 -23 -83 6 0 11 9 11 19 0 11 34 92 75 181 41 89 75
166 75 171 0 5 -47 71 -105 147 -58 76 -105 144 -105 151 0 10 10 12 43 6 58
-9 213 -34 263 -41 l40 -6 37 62 c20 34 37 66 37 71 0 5 4 9 8 9 5 0 19 23 32
51 36 75 65 112 77 97 10 -12 43 -228 43 -275 0 -66 27 -82 240 -137 52 -13
108 -29 123 -35 15 -6 31 -10 35 -8 4 1 8 -2 10 -7 2 -5 -68 -50 -155 -100
-138 -80 -159 -95 -164 -121 l-7 -30 -1 32 c-1 37 6 43 157 127 56 32 102 60
102 63 0 5 -105 -51 -209 -112 l-62 -37 6 -101 c4 -56 10 -115 15 -132 5 -16
11 -77 15 -135 l6 -105 -92 95 c-50 52 -95 94 -99 93 -4 -1 -20 11 -35 27 -16
17 -25 30 -21 30 5 0 3 6 -3 14 -9 11 -9 16 0 22 8 5 9 3 4 -6 -5 -8 -4 -11 3
-6 7 4 9 -1 7 -15 -4 -17 -2 -20 7 -11 9 9 18 7 37 -11 14 -12 -1 8 -34 44
-35 39 -68 67 -80 67 -20 1 -20 1 0 -8 21 -9 20 -9 -6 -15 -8 -1 -47 -17 -86
-34 -75 -32 -106 -40 -63 -16 30 17 21 20 -14 4 -21 -10 -23 -14 -11 -26 11
-10 19 -11 34 -3 30 15 40 11 11 -5 -14 -8 -33 -12 -44 -8 -10 3 -16 1 -13 -4
6 -10 -62 -48 -70 -39 -2 2 5 7 16 11 12 3 21 11 21 16 0 13 -3 12 -74 -23
-36 -18 -68 -29 -71 -26 -4 3 1 20 9 37 9 16 16 34 15 38 0 4 -11 -14 -25 -42
-13 -27 -19 -51 -14 -53 5 -2 30 6 56 17 26 12 49 20 51 18 5 -6 -116 -59
-127 -55 -5 2 34 97 86 213 76 168 93 214 85 230 -5 11 -68 95 -140 187 -72
92 -131 170 -131 173 0 3 17 5 38 5 35 -1 36 -1 14 -13 -22 -13 -22 -13 29
-80 29 -37 54 -65 57 -63 2 3 -17 30 -42 61 -51 63 -55 75 -27 75 11 0 28 3
38 6 15 5 16 4 3 -5 -12 -9 -4 -11 35 -6 37 4 45 3 30 -5 -15 -7 -7 -8 30 -4
38 4 47 3 35 -6 -12 -9 -5 -10 30 -5 34 5 41 4 30 -5 -11 -8 -3 -9 35 -5 37 4
45 3 30 -5 -15 -8 -10 -9 23 -5 24 2 47 7 52 10 5 3 26 35 46 70 21 38 40 62
46 58 7 -3 8 -1 4 6 -4 6 9 42 29 79 42 76 68 109 36 45 -12 -24 -19 -43 -16
-43 8 0 56 100 51 109 -6 10 31 71 43 71 5 0 12 -7 15 -16z m471 -564 c14 -5
25 -14 25 -20 0 -13 -27 -13 -36 1 -3 6 -20 18 -38 25 -29 14 -29 15 -4 9 15
-3 39 -10 53 -15z m-619 -392 c15 -19 16 -20 2 -9 -10 8 -18 9 -18 3 0 -5 -9
-8 -20 -5 -19 5 -20 6 -3 19 10 7 18 14 19 14 0 0 9 -10 20 -22z"/>
<path d="M550 1354 c0 -3 30 -44 66 -90 36 -47 72 -97 80 -112 10 -20 14 -22
14 -9 0 10 -34 63 -76 118 -74 95 -84 106 -84 93z"/>
<path d="M1084 753 c15 -17 28 -34 27 -37 -1 -3 1 -5 2 -3 2 1 11 -4 20 -12
35 -28 15 -4 -30 39 -26 25 -35 31 -19 13z"/>
<path d="M2051 1615 c-41 -69 -79 -125 -85 -125 -6 0 -68 13 -139 29 -70 15
-129 25 -132 23 -11 -11 -4 -37 14 -56 29 -33 176 -242 160 -229 -13 10 -25
-9 -82 -122 -63 -127 -70 -161 -30 -135 16 9 15 10 -4 5 -18 -5 -22 -3 -17 9
4 11 11 13 30 6 27 -11 57 -3 48 12 -3 5 -17 7 -29 4 -19 -5 -22 -3 -18 14 3
11 9 23 14 26 5 3 6 -2 3 -10 -4 -10 -1 -16 7 -16 8 0 15 11 16 25 5 54 8 63
15 59 8 -5 78 128 78 148 0 7 -27 53 -61 101 -34 49 -58 91 -55 94 3 4 49 -3
101 -15 52 -12 101 -19 108 -16 7 2 37 43 66 89 29 47 57 85 61 85 3 0 12 -48
18 -106 7 -58 14 -109 17 -114 3 -5 55 -25 117 -46 l111 -37 -99 -51 -99 -51
-5 -133 -5 -133 -80 95 c-44 53 -84 95 -90 93 -125 -46 -184 -71 -179 -78 3
-5 -1 -9 -8 -9 -8 -1 -7 -4 4 -10 9 -6 24 -7 34 -3 16 6 15 7 -2 21 -20 15
-15 15 30 -4 7 -3 20 1 27 8 8 7 23 14 34 16 11 2 31 5 45 8 21 3 38 -11 110
-96 47 -54 86 -104 88 -110 2 -5 8 -10 14 -10 7 0 9 51 6 161 l-5 160 101 52
c55 28 115 57 131 63 56 20 36 37 -95 80 -69 23 -130 46 -136 52 -5 5 -16 67
-23 138 -7 71 -15 137 -17 147 -12 41 -40 14 -113 -108z m97 74 c1 -41 19
-215 27 -255 4 -17 27 -27 125 -58 66 -20 120 -41 120 -46 0 -6 -1 -10 -2 -10
-2 1 -59 20 -128 44 l-125 43 -15 121 c-9 66 -18 124 -22 127 -3 3 -34 -39
-69 -94 -38 -59 -71 -101 -80 -101 -9 0 -62 9 -118 21 -57 11 -105 19 -107 16
-2 -2 28 -50 67 -106 39 -56 68 -107 65 -114 -2 -7 -5 -4 -5 6 -1 10 -5 16
-10 12 -5 -3 -20 9 -32 27 -13 17 -17 28 -10 23 9 -5 12 -3 9 6 -3 8 -11 14
-19 14 -8 0 -13 8 -11 19 2 10 -1 15 -7 12 -12 -8 -50 45 -44 62 3 7 -1 11 -7
10 -7 -2 -13 7 -15 19 -2 24 -15 45 -15 24 0 -7 -4 -9 -10 -6 -20 12 -10 27
13 20 40 -12 232 -54 249 -55 10 0 41 40 83 107 60 94 71 117 74 146 1 4 5 7
10 7 5 0 9 -18 9 -41z"/>
</g>
</svg>
